<svg xmlns="http://www.w3.org/2000/svg" width="150" height="180"><svg width="220" height="220"><g transform="translate(40,10)"></g></svg><g transform="translate(15,259)" stroke="black" fill="none" font-size="10" font-family="sans-serif" text-anchor="middle"><path class="domain" stroke="currentColor" d="M15.5,6V0.5H150.5V6"></path></g><g transform="translate(30,15)" stroke="black" fill="none" font-size="10" font-family="sans-serif" text-anchor="end"><path class="domain" stroke="currentColor" d="M-6,180.5H0.5V0.5H-6"></path><g class="tick" opacity="1" transform="translate(0,180.5)"><line stroke="currentColor" x2="-6"></line><text fill="currentColor" x="-9" dy="0.32em">0</text></g><g class="tick" opacity="1" transform="translate(0,143)"><line stroke="currentColor" x2="-6"></line><text fill="currentColor" x="-9" dy="0.32em">5</text></g><g class="tick" opacity="1" transform="translate(0,105.49999999999999)"><line stroke="currentColor" x2="-6"></line><text fill="currentColor" x="-9" dy="0.32em">10</text></g><g class="tick" opacity="1" transform="translate(0,68)"><line stroke="currentColor" x2="-6"></line><text fill="currentColor" x="-9" dy="0.32em">15</text></g><g class="tick" opacity="1" transform="translate(0,30.499999999999993)"><line stroke="currentColor" x2="-6"></line><text fill="currentColor" x="-9" dy="0.32em">20</text></g></g><g style="color: rgb(204, 204, 204);" transform="translate(30,15)" fill="none" font-size="10" font-family="sans-serif" text-anchor="end"><g class="tick" opacity="1" transform="translate(0,180.5)"><line stroke="currentColor" x2="150"></line><text fill="currentColor" x="-3" dy="0.32em"></text></g><g class="tick" opacity="1" transform="translate(0,143)"><line stroke="currentColor" x2="150"></line><text fill="currentColor" x="-3" dy="0.32em"></text></g><g class="tick" opacity="1" transform="translate(0,105.49999999999999)"><line stroke="currentColor" x2="150"></line><text fill="currentColor" x="-3" dy="0.32em"></text></g><g class="tick" opacity="1" transform="translate(0,68)"><line stroke="currentColor" x2="150"></line><text fill="currentColor" x="-3" dy="0.32em"></text></g><g class="tick" opacity="1" transform="translate(0,30.499999999999993)"><line stroke="currentColor" x2="150"></line><text fill="currentColor" x="-3" dy="0.32em"></text></g></g><line x1="95" x2="95" y1="150" y2="15.000000000000007" stroke="black"></line><rect x="45" y="43.12500000000001" height="48.75000000000001" width="100" stroke="black" style="fill: #BDBDBD;"></rect><line x1="45" x2="145" y1="150" y2="150" stroke="black"></line><line x1="45" x2="145" y1="82.5" y2="82.5" stroke="black"></line><line x1="45" x2="145" y1="15.000000000000007" y2="15.000000000000007" stroke="black"></line></svg>