<svg xmlns="http://www.w3.org/2000/svg" width="780" height="460"><g transform="translate(30,0)" stroke="black" fill="none" font-size="10" font-family="sans-serif" text-anchor="end"><path class="domain" stroke="currentColor" d="M-6,280.5H0.5V10.5H-6"></path><g class="tick" opacity="1" transform="translate(0,280.5)"><line stroke="currentColor" x2="-6"></line><text fill="currentColor" x="-9" dy="0.32em">0</text></g><g class="tick" opacity="1" transform="translate(0,226.5)"><line stroke="currentColor" x2="-6"></line><text fill="currentColor" x="-9" dy="0.32em">10</text></g><g class="tick" opacity="1" transform="translate(0,172.5)"><line stroke="currentColor" x2="-6"></line><text fill="currentColor" x="-9" dy="0.32em">20</text></g><g class="tick" opacity="1" transform="translate(0,118.5)"><line stroke="currentColor" x2="-6"></line><text fill="currentColor" x="-9" dy="0.32em">30</text></g><g class="tick" opacity="1" transform="translate(0,64.49999999999999)"><line stroke="currentColor" x2="-6"></line><text fill="currentColor" x="-9" dy="0.32em">40</text></g><g class="tick" opacity="1" transform="translate(0,10.5)"><line stroke="currentColor" x2="-6"></line><text fill="currentColor" x="-9" dy="0.32em">50</text></g></g><g style="color: rgb(204, 204, 204);" transform="translate(30,0)" fill="none" font-size="10" font-family="sans-serif" text-anchor="end"><g class="tick" opacity="1" transform="translate(0,280.5)"><line stroke="currentColor" x2="440"></line><text fill="currentColor" x="-3" dy="0.32em"></text></g><g class="tick" opacity="1" transform="translate(0,226.5)"><line stroke="currentColor" x2="440"></line><text fill="currentColor" x="-3" dy="0.32em"></text></g><g class="tick" opacity="1" transform="translate(0,172.5)"><line stroke="currentColor" x2="440"></line><text fill="currentColor" x="-3" dy="0.32em"></text></g><g class="tick" opacity="1" transform="translate(0,118.5)"><line stroke="currentColor" x2="440"></line><text fill="currentColor" x="-3" dy="0.32em"></text></g><g class="tick" opacity="1" transform="translate(0,64.49999999999999)"><line stroke="currentColor" x2="440"></line><text fill="currentColor" x="-3" dy="0.32em"></text></g><g class="tick" opacity="1" transform="translate(0,10.5)"><line stroke="currentColor" x2="440"></line><text fill="currentColor" x="-3" dy="0.32em"></text></g></g><g transform="translate(0,280)" stroke="black" fill="none" font-size="10" font-family="sans-serif" text-anchor="middle"><path class="domain" stroke="currentColor" d="M30.5,6V0.5H470.5V6"></path><g class="tick" opacity="1" transform="translate(87.03703703703702,0)"><line stroke="currentColor" y2="6"></line><text fill="currentColor" y="9" dy="0.71em">A</text></g><g class="tick" opacity="1" transform="translate(168.51851851851853,0)"><line stroke="currentColor" y2="6"></line><text fill="currentColor" y="9" dy="0.71em">B</text></g><g class="tick" opacity="1" transform="translate(250.00000000000003,0)"><line stroke="currentColor" y2="6"></line><text fill="currentColor" y="9" dy="0.71em">C</text></g><g class="tick" opacity="1" transform="translate(331.4814814814815,0)"><line stroke="currentColor" y2="6"></line><text fill="currentColor" y="9" dy="0.71em">DBQ1</text></g><g class="tick" opacity="1" transform="translate(412.96296296296305,0)"><line stroke="currentColor" y2="6"></line><text fill="currentColor" y="9" dy="0.71em">DRB1</text></g></g><line x1="87.59259259259258" x2="87.59259259259258" y1="253" y2="36.99999999999999" stroke="black"></line><line x1="169.07407407407408" x2="169.07407407407408" y1="231.40000000000003" y2="36.99999999999999" stroke="black"></line><line x1="250.55555555555557" x2="250.55555555555557" y1="236.79999999999998" y2="36.99999999999999" stroke="black"></line><line x1="332.03703703703707" x2="332.03703703703707" y1="253" y2="36.99999999999999" stroke="black"></line><line x1="413.5185185185186" x2="413.5185185185186" y1="236.79999999999998" y2="31.599999999999987" stroke="black"></line><rect x="62.59259259259258" y="118" width="50" height="108" fill="#BDBDBD" stroke="black"></rect><rect x="144.07407407407408" y="91.00000000000001" width="50" height="118.79999999999997" fill="#BDBDBD" stroke="black"></rect><rect x="225.55555555555557" y="118" width="50" height="81" fill="#BDBDBD" stroke="black"></rect><rect x="307.03703703703707" y="112.60000000000001" width="50" height="107.99999999999999" fill="#BDBDBD" stroke="black"></rect><rect x="388.5185185185186" y="101.79999999999998" width="50" height="108" fill="#BDBDBD" stroke="black"></rect><line x1="62.59259259259258" x2="112.59259259259258" y1="199" y2="199" stroke="black" width="80"></line><line x1="144.07407407407408" x2="194.07407407407408" y1="199" y2="199" stroke="black" width="80"></line><line x1="225.55555555555557" x2="275.55555555555554" y1="193.59999999999997" y2="193.59999999999997" stroke="black" width="80"></line><line x1="307.03703703703707" x2="357.03703703703707" y1="188.2" y2="188.2" stroke="black" width="80"></line><line x1="388.5185185185186" x2="438.5185185185186" y1="182.8" y2="182.8" stroke="black" width="80"></line><line x1="62.59259259259258" x2="112.59259259259258" y1="36.99999999999999" y2="36.99999999999999" stroke="black" width="80"></line><line x1="144.07407407407408" x2="194.07407407407408" y1="36.99999999999999" y2="36.99999999999999" stroke="black" width="80"></line><line x1="225.55555555555557" x2="275.55555555555554" y1="36.99999999999999" y2="36.99999999999999" stroke="black" width="80"></line><line x1="307.03703703703707" x2="357.03703703703707" y1="36.99999999999999" y2="36.99999999999999" stroke="black" width="80"></line><line x1="388.5185185185186" x2="438.5185185185186" y1="31.599999999999987" y2="31.599999999999987" stroke="black" width="80"></line><line x1="62.59259259259258" x2="112.59259259259258" y1="253" y2="253" stroke="black" width="80"></line><line x1="144.07407407407408" x2="194.07407407407408" y1="231.40000000000003" y2="231.40000000000003" stroke="black" width="80"></line><line x1="225.55555555555557" x2="275.55555555555554" y1="236.79999999999998" y2="236.79999999999998" stroke="black" width="80"></line><line x1="307.03703703703707" x2="357.03703703703707" y1="253" y2="253" stroke="black" width="80"></line><line x1="388.5185185185186" x2="438.5185185185186" y1="236.79999999999998" y2="236.79999999999998" stroke="black" width="80"></line></svg>