<svg xmlns="http://www.w3.org/2000/svg" width="400" height="300"><text transform="translate(150,0)" x="50" y="50" font-size="10px">HLA</text><g transform="translate(50,0)" stroke="grey" fill="none" font-size="10" font-family="sans-serif" text-anchor="end" style="font-size: 10;"><path class="domain" stroke="currentColor" d="M-6,260.5H0.5V0.5H-6"></path><g class="tick" opacity="1" transform="translate(0,260.5)"><line stroke="currentColor" x2="-6"></line><text fill="currentColor" x="-9" dy="0.32em">0</text></g><g class="tick" opacity="1" transform="translate(0,239.44736842105263)"><line stroke="currentColor" x2="-6"></line><text fill="currentColor" x="-9" dy="0.32em">20,000</text></g><g class="tick" opacity="1" transform="translate(0,218.39473684210526)"><line stroke="currentColor" x2="-6"></line><text fill="currentColor" x="-9" dy="0.32em">40,000</text></g><g class="tick" opacity="1" transform="translate(0,197.34210526315792)"><line stroke="currentColor" x2="-6"></line><text fill="currentColor" x="-9" dy="0.32em">60,000</text></g><g class="tick" opacity="1" transform="translate(0,176.28947368421055)"><line stroke="currentColor" x2="-6"></line><text fill="currentColor" x="-9" dy="0.32em">80,000</text></g><g class="tick" opacity="1" transform="translate(0,155.23684210526315)"><line stroke="currentColor" x2="-6"></line><text fill="currentColor" x="-9" dy="0.32em">100,000</text></g><g class="tick" opacity="1" transform="translate(0,134.1842105263158)"><line stroke="currentColor" x2="-6"></line><text fill="currentColor" x="-9" dy="0.32em">120,000</text></g><g class="tick" opacity="1" transform="translate(0,113.13157894736841)"><line stroke="currentColor" x2="-6"></line><text fill="currentColor" x="-9" dy="0.32em">140,000</text></g><g class="tick" opacity="1" transform="translate(0,92.07894736842105)"><line stroke="currentColor" x2="-6"></line><text fill="currentColor" x="-9" dy="0.32em">160,000</text></g><g class="tick" opacity="1" transform="translate(0,71.02631578947368)"><line stroke="currentColor" x2="-6"></line><text fill="currentColor" x="-9" dy="0.32em">180,000</text></g><g class="tick" opacity="1" transform="translate(0,49.97368421052632)"><line stroke="currentColor" x2="-6"></line><text fill="currentColor" x="-9" dy="0.32em">200,000</text></g><g class="tick" opacity="1" transform="translate(0,28.921052631578956)"><line stroke="currentColor" x2="-6"></line><text fill="currentColor" x="-9" dy="0.32em">220,000</text></g><g class="tick" opacity="1" transform="translate(0,7.868421052631591)"><line stroke="currentColor" x2="-6"></line><text fill="currentColor" x="-9" dy="0.32em">240,000</text></g><text transform="rotate(-90)" y="0" x="50" font-size="10px"></text></g><g transform="translate(15,260)" stroke="grey" fill="none" font-size="10" font-family="sans-serif" text-anchor="middle"><path class="domain" stroke="currentColor" d="M0.5,6V0.5H390.5V6"></path><g class="tick" opacity="1" transform="translate(23.399999999999995,0)"><line stroke="currentColor" y2="6"></line><text fill="currentColor" y="9" dy="0.71em">53098</text></g><g class="tick" opacity="1" transform="translate(54.599999999999994,0)"><line stroke="currentColor" y2="6"></line><text fill="currentColor" y="9" dy="0.71em">63099</text></g><g class="tick" opacity="1" transform="translate(85.8,0)"><line stroke="currentColor" y2="6"></line><text fill="currentColor" y="9" dy="0.71em">73402</text></g><g class="tick" opacity="1" transform="translate(116.99999999999999,0)"><line stroke="currentColor" y2="6"></line><text fill="currentColor" y="9" dy="0.71em">83351</text></g><g class="tick" opacity="1" transform="translate(148.2,0)"><line stroke="currentColor" y2="6"></line><text fill="currentColor" y="9" dy="0.71em">53410</text></g><g class="tick" opacity="1" transform="translate(179.4,0)"><line stroke="currentColor" y2="6"></line><text fill="currentColor" y="9" dy="0.71em">53415</text></g><g class="tick" opacity="1" transform="translate(210.6,0)"><line stroke="currentColor" y2="6"></line><text fill="currentColor" y="9" dy="0.71em">59410</text></g><g class="tick" opacity="1" transform="translate(241.8,0)"><line stroke="currentColor" y2="6"></line><text fill="currentColor" y="9" dy="0.71em">53715</text></g><g class="tick" opacity="1" transform="translate(273,0)"><line stroke="currentColor" y2="6"></line><text fill="currentColor" y="9" dy="0.71em">53515</text></g><g class="tick" opacity="1" transform="translate(304.2,0)"><line stroke="currentColor" y2="6"></line><text fill="currentColor" y="9" dy="0.71em">80410</text></g><g class="tick" opacity="1" transform="translate(335.40000000000003,0)"><line stroke="currentColor" y2="6"></line><text fill="currentColor" y="9" dy="0.71em">73715</text></g><g class="tick" opacity="1" transform="translate(366.59999999999997,0)"><line stroke="currentColor" y2="6"></line><text fill="currentColor" y="9" dy="0.71em">99515</text></g></g><rect transform="translate(30,0)" class="bar" x="15.599999999999994" y="238.94736842105263" width="15.6" height="21.05263157894737" style="fill: #69b3a2; opacity: 0.5;"></rect><rect transform="translate(30,0)" class="bar" x="46.8" y="217.89473684210526" width="15.6" height="42.10526315789474" style="fill: #69b3a2; opacity: 0.5;"></rect><rect transform="translate(30,0)" class="bar" x="78" y="196.84210526315792" width="15.6" height="63.15789473684208" style="fill: #69b3a2; opacity: 0.5;"></rect><rect transform="translate(30,0)" class="bar" x="109.19999999999999" y="175.78947368421055" width="15.6" height="84.21052631578945" style="fill: #69b3a2; opacity: 0.5;"></rect><rect transform="translate(30,0)" class="bar" x="140.39999999999998" y="128.42105263157896" width="15.6" height="131.57894736842104" style="fill: #69b3a2; opacity: 0.5;"></rect><rect transform="translate(30,0)" class="bar" x="171.6" y="152.6315789473684" width="15.6" height="107.36842105263159" style="fill: #69b3a2; opacity: 0.5;"></rect><rect transform="translate(30,0)" class="bar" x="171.6" y="131.57894736842104" width="15.6" height="128.42105263157896" style="fill: #69b3a2; opacity: 0.5;"></rect><rect transform="translate(30,0)" class="bar" x="202.79999999999998" y="133.6842105263158" width="15.6" height="126.31578947368419" style="fill: #69b3a2; opacity: 0.5;"></rect><rect transform="translate(30,0)" class="bar" x="234" y="123.15789473684211" width="15.6" height="136.8421052631579" style="fill: #69b3a2; opacity: 0.5;"></rect><rect transform="translate(30,0)" class="bar" x="265.2" y="144.21052631578948" width="15.6" height="115.78947368421052" style="fill: #69b3a2; opacity: 0.5;"></rect><rect transform="translate(30,0)" class="bar" x="296.4" y="81.05263157894738" width="15.6" height="178.9473684210526" style="fill: #69b3a2; opacity: 0.5;"></rect><rect transform="translate(30,0)" class="bar" x="327.6" y="59.999999999999986" width="15.6" height="200" style="fill: #69b3a2; opacity: 0.5;"></rect><rect transform="translate(30,0)" class="bar" x="358.79999999999995" y="144.21052631578948" width="15.6" height="115.78947368421052" style="fill: #69b3a2; opacity: 0.5;"></rect><text text-anchor="end" transform="rotate(-90)" y="45" x="-10" font-size="10px">Read number (R1+R2)</text></svg>